<svg version="1.2" xmlns="http://www.w3.org/2000/svg" viewBox="0 0 20 20" width="20" height="20"><style>.a{fill:#a7aaad}.b{fill:#fff}</style><path class="a" d="m0 3c0-1.7 1.3-3 3-3h14c1.7 0 3 1.3 3 3v14c0 1.7-1.3 3-3 3h-14c-1.7 0-3-1.3-3-3z"/><path fill-rule="evenodd" class="b" d="m3.9 7q1.3 0 2.1 0.8 0.9 0.9 0.9 2.1 0 1.2-0.9 2.1-0.8 0.9-2.1 0.9-1.2 0-2.1-0.9-0.8-0.8-0.8-2.1 0-0.8 0.4-1.4 0.4-0.7 1-1.1 0.7-0.4 1.5-0.4zm0 0.5q-0.6 0-1.1 0.4-0.6 0.3-0.9 0.8-0.3 0.6-0.3 1.2 0 1 0.7 1.7 0.7 0.7 1.6 0.7 0.7 0 1.2-0.3 0.6-0.3 0.9-0.9 0.3-0.5 0.3-1.2 0-0.7-0.3-1.2-0.3-0.5-0.9-0.8-0.6-0.4-1.2-0.4z"/><path fill-rule="evenodd" class="b" d="m9.7 7q1.3 0 2.2 0.8 0.8 0.9 0.8 2.1 0 1.2-0.8 2.1-0.9 0.9-2.1 0.9-1.2 0-2.1-0.9-0.9-0.8-0.9-2 0-0.8 0.4-1.5 0.4-0.7 1.1-1.1 0.7-0.4 1.4-0.4zm0.1 0.5q-0.6 0-1.2 0.4-0.6 0.3-0.9 0.8-0.3 0.6-0.3 1.2 0 1 0.7 1.7 0.7 0.7 1.7 0.7 0.6 0 1.2-0.3 0.5-0.3 0.8-0.9 0.3-0.5 0.3-1.2 0-0.7-0.3-1.2-0.3-0.5-0.8-0.8-0.6-0.4-1.2-0.4z"/><path class="b" d="m12.9 8.6h0.5v0.7q0.3-0.4 0.5-0.6 0.4-0.2 0.9-0.2 0.3 0 0.6 0.1 0.2 0.1 0.4 0.3 0.2 0.2 0.3 0.6 0.3-0.5 0.7-0.8 0.3-0.2 0.8-0.2 0.4 0 0.8 0.2 0.3 0.2 0.4 0.6 0.2 0.4 0.2 1.2v2.2h-0.5v-2.2q0-0.7-0.1-0.9-0.1-0.3-0.4-0.4-0.2-0.2-0.5-0.2-0.4 0-0.7 0.2-0.3 0.3-0.5 0.6-0.1 0.4-0.1 1.3v1.6h-0.5v-2.1q0-0.7-0.1-1-0.1-0.3-0.4-0.4-0.2-0.2-0.5-0.2-0.4 0-0.7 0.2-0.3 0.2-0.5 0.6-0.1 0.4-0.1 1.2v1.7h-0.5z"/></svg>